<svg xmlns="http://www.w3.org/2000/svg" width="18" height="16" viewBox="0 0 18 16">
    <g fill="none" fill-rule="evenodd">
        <g fill="#BC3E4D" fill-rule="nonzero">
            <path d="M622.797 277.75c.577 1-.147 2.25-1.299 2.25h-14.996c-1.155 0-1.875-1.252-1.3-2.25l7.499-13c.577-1 2.022-.999 2.598 0l7.498 13zM614 275.062c-.794 0-1.437.644-1.437 1.438 0 .794.643 1.438 1.437 1.438s1.438-.644 1.438-1.438c0-.794-.644-1.438-1.438-1.438zm-1.365-5.167l.232 4.25c.01.2.175.355.374.355h1.518c.199 0 .363-.156.374-.355l.232-4.25c.012-.214-.16-.395-.375-.395h-1.98c-.215 0-.386.18-.375.395z" transform="translate(-605 -264)"/>
        </g>
    </g>
</svg>
